<svg width="256" height="256" viewBox="0 0 256 256" fill="none" xmlns="http://www.w3.org/2000/svg">
  <rect width="256" height="256" rx="56" fill="#0F172A"/>
  <path d="M58 78C58 66.9543 66.9543 58 78 58H178C189.046 58 198 66.9543 198 78V178C198 189.046 189.046 198 178 198H78C66.9543 198 58 189.046 58 178V78Z" fill="#F8FAFC"/>
  <path d="M84 116C84 98.3269 98.3269 84 116 84H172V112H116C113.791 112 112 113.791 112 116V172H84V116Z" fill="#14B8A6"/>
  <path d="M144 144H172V172H144V144Z" fill="#F59E0B"/>
  <path d="M116 144H132V172H116V144Z" fill="#0F172A"/>
</svg>
